<?xml version="1.0" encoding="utf-8"?>
<!-- Generator: Adobe Illustrator 16.0.0, SVG Export Plug-In . SVG Version: 6.00 Build 0)  -->
<!DOCTYPE svg PUBLIC "-//W3C//DTD SVG 1.1//EN" "http://www.w3.org/Graphics/SVG/1.1/DTD/svg11.dtd">
<svg version="1.1" xmlns="http://www.w3.org/2000/svg" xmlns:xlink="http://www.w3.org/1999/xlink" x="0px" y="0px" width="330px"
	 height="290px" viewBox="0 0 330 290" enable-background="new 0 0 330 290" xml:space="preserve">
<g id="Layer_2">
</g>
<g id="Layer_3">
	<g id="logo-main">
		<g>
			<path d="M311.101,263.507c0,0-23.028-41.506-41.319-73.986c7.227-6.019,14.017-12.688,20.272-19.977l-13.66-11.723
				c-4.914,5.727-10.14,10.979-15.62,15.766c-3.174-5.585-5.963-10.454-8.135-14.185c-11.618-19.949-46.239-76.892-58.244-96.611
				c0.328-1.712,0.506-3.477,0.506-5.285c0-15.409-12.491-27.9-27.9-27.9c-15.408,0-27.899,12.491-27.899,27.9
				c0,1.822,0.181,3.602,0.514,5.327c-11.099,18.214-46.393,76.204-58.251,96.568C66.497,184.929,22.9,263.507,22.9,263.507
				l53.717-64.848c27.281,18.632,58.868,28.446,90.841,28.446c6.751,0,13.525-0.438,20.272-1.322
				c25.035-3.281,48.87-12.594,69.783-26.967L311.101,263.507z M167,45.303c6.74,0,12.205,5.464,12.205,12.204
				S173.74,69.711,167,69.711s-12.203-5.464-12.203-12.204S160.26,45.303,167,45.303z M88.151,184.735L167,89.548l79.021,95.394
				C198.778,216.751,137.67,217.787,88.151,184.735z"/>
			<polygon points="175.337,146.533 167,120.877 158.664,146.533 131.688,146.533 153.512,162.39 145.176,188.046 167,172.189 
				188.825,188.046 180.489,162.39 202.313,146.533 			"/>
		</g>
	</g>
	<g id="logo-shadow">
		<g>
			<path fill="#CC2127" d="M307.101,259.507c0,0-23.028-41.506-41.319-73.986c7.227-6.019,14.017-12.688,20.272-19.977
				l-13.66-11.723c-4.914,5.727-10.14,10.979-15.62,15.766c-3.174-5.585-5.963-10.454-8.135-14.185
				c-11.618-19.949-46.239-76.892-58.244-96.611c0.328-1.712,0.506-3.477,0.506-5.285c0-15.409-12.491-27.9-27.9-27.9
				c-15.408,0-27.899,12.491-27.899,27.9c0,1.822,0.181,3.602,0.514,5.327c-11.099,18.214-46.393,76.204-58.251,96.568
				C62.497,180.929,18.9,259.507,18.9,259.507l53.717-64.848c27.281,18.632,58.868,28.446,90.841,28.446
				c6.751,0,13.525-0.438,20.272-1.322c25.035-3.281,48.87-12.594,69.783-26.967L307.101,259.507z M163,41.303
				c6.74,0,12.205,5.464,12.205,12.204S169.74,65.711,163,65.711s-12.203-5.464-12.203-12.204S156.26,41.303,163,41.303z
				 M84.151,180.735L163,85.548l79.021,95.394C194.778,212.751,133.67,213.787,84.151,180.735z"/>
			<polygon fill="#CC2127" points="171.337,142.533 163,116.877 154.664,142.533 127.688,142.533 149.512,158.39 141.176,184.046 
				163,168.189 184.825,184.046 176.489,158.39 198.313,142.533 			"/>
		</g>
	</g>
</g>
<g id="Layer_1" display="none">
</g>
</svg>
